<?xml version="1.0" standalone="no"?>
<!DOCTYPE svg PUBLIC "-//W3C//DTD SVG 20010904//EN" "http://www.w3.org/TR/2001/REC-SVG-20010904/DTD/svg10.dtd">
<svg version="1.0" xmlns="http://www.w3.org/2000/svg"
 width="700.000000pt" height="700.000000pt" viewBox="0 0 700.000000 700.000000"
 preserveAspectRatio="xMidYMid meet">
<g transform="translate(0.000000,700.000000) scale(0.100000,-0.100000)" fill="#000000" stroke="none">
<path d="M1755 6448 c-412 -56 -756 -264 -976 -592 -111 -165 -193 -365 -214
-520 -3 -17 -7 -42 -11 -56 -9 -39 -12 -306 -3 -358 15 -94 20 -118 41 -197
37 -141 129 -332 212 -440 205 -269 442 -429 766 -519 131 -36 395 -52 518
-31 20 4 48 8 62 10 79 10 247 65 351 115 697 338 975 1186 613 1870 -63 117
-143 225 -240 323 -217 217 -488 350 -802 393 -66 9 -255 10 -317 2z"/>
<path d="M4970 6449 c-134 -16 -169 -22 -264 -50 -129 -38 -319 -132 -419
-207 -315 -237 -501 -556 -552 -947 -8 -62 -8 -266 0 -320 64 -419 272 -754
600 -970 331 -218 734 -286 1105 -186 477 127 843 492 974 971 47 171 56 434
22 605 -95 478 -422 859 -880 1030 -62 23 -169 52 -221 60 -93 14 -129 17
-213 19 -54 1 -122 -1 -152 -5z"/>
<path d="M1758 3264 c-2 -1 -23 -5 -48 -9 -440 -62 -832 -349 -1028 -750 -186
-382 -184 -850 6 -1215 48 -93 69 -126 133 -211 213 -282 516 -464 874 -524
106 -18 395 -13 485 9 36 9 75 19 87 21 37 8 164 55 213 78 157 75 272 157
400 286 255 257 391 589 391 951 0 143 -4 176 -37 337 -17 84 -117 316 -164
383 -11 15 -20 31 -20 35 0 12 -114 149 -175 211 -208 211 -459 339 -765 389
-63 11 -344 18 -352 9z"/>
<path d="M4910 3259 c-189 -36 -309 -73 -417 -128 -417 -211 -687 -584 -753
-1042 -11 -71 -15 -322 -6 -337 2 -4 7 -29 10 -57 24 -178 99 -373 208 -540
63 -97 81 -118 178 -215 266 -268 599 -402 990 -400 52 0 105 2 117 4 11 3 43
8 70 11 466 65 905 424 1067 874 98 273 110 587 31 856 -27 92 -38 120 -83
215 -174 361 -507 631 -898 729 -44 11 -97 22 -119 26 -62 11 -345 13 -395 4z"/>
</g>
</svg>
